<mxfile host="app.diagrams.net" modified="2023-12-28T07:09:00.724Z" agent="Mozilla/5.0 (Windows NT 10.0; Win64; x64) AppleWebKit/537.36 (KHTML, like Gecko) Chrome/120.0.0.0 Safari/537.36 Edg/120.0.0.0" etag="9zZgCmqneA7bfBLhdqM3" version="22.1.15" type="device">
  <diagram name="Page-1" id="8Ztk-sMrozHaKxTNgnEX">
    <mxGraphModel dx="1042" dy="587" grid="1" gridSize="10" guides="1" tooltips="1" connect="1" arrows="1" fold="1" page="1" pageScale="1" pageWidth="850" pageHeight="1100" math="0" shadow="0">
      <root>
        <mxCell id="0" />
        <mxCell id="1" parent="0" />
        <mxCell id="D4wKrzark8rbHEG2IOxt-15" style="edgeStyle=orthogonalEdgeStyle;rounded=0;orthogonalLoop=1;jettySize=auto;html=1;" edge="1" parent="1" source="D4wKrzark8rbHEG2IOxt-1" target="D4wKrzark8rbHEG2IOxt-2">
          <mxGeometry relative="1" as="geometry" />
        </mxCell>
        <mxCell id="D4wKrzark8rbHEG2IOxt-1" value="" style="whiteSpace=wrap;html=1;aspect=fixed;" vertex="1" parent="1">
          <mxGeometry y="80" width="340" height="340" as="geometry" />
        </mxCell>
        <mxCell id="D4wKrzark8rbHEG2IOxt-14" style="edgeStyle=orthogonalEdgeStyle;rounded=0;orthogonalLoop=1;jettySize=auto;html=1;" edge="1" parent="1" source="D4wKrzark8rbHEG2IOxt-2" target="D4wKrzark8rbHEG2IOxt-1">
          <mxGeometry relative="1" as="geometry">
            <mxPoint x="350" y="250" as="targetPoint" />
          </mxGeometry>
        </mxCell>
        <mxCell id="D4wKrzark8rbHEG2IOxt-2" value="" style="whiteSpace=wrap;html=1;aspect=fixed;" vertex="1" parent="1">
          <mxGeometry x="510" y="80" width="340" height="340" as="geometry" />
        </mxCell>
        <mxCell id="D4wKrzark8rbHEG2IOxt-3" value="" style="image;aspect=fixed;html=1;points=[];align=center;fontSize=12;image=img/lib/azure2/other/AVS_VM.svg;" vertex="1" parent="1">
          <mxGeometry x="120" y="190" width="68" height="62.8" as="geometry" />
        </mxCell>
        <mxCell id="D4wKrzark8rbHEG2IOxt-13" value="" style="edgeStyle=orthogonalEdgeStyle;rounded=0;orthogonalLoop=1;jettySize=auto;html=1;" edge="1" parent="1" source="D4wKrzark8rbHEG2IOxt-4" target="D4wKrzark8rbHEG2IOxt-5">
          <mxGeometry relative="1" as="geometry" />
        </mxCell>
        <mxCell id="D4wKrzark8rbHEG2IOxt-4" value="" style="image;aspect=fixed;html=1;points=[];align=center;fontSize=12;image=img/lib/azure2/other/AVS_VM.svg;" vertex="1" parent="1">
          <mxGeometry x="720" y="180" width="68" height="62.8" as="geometry" />
        </mxCell>
        <mxCell id="D4wKrzark8rbHEG2IOxt-5" value="" style="image;aspect=fixed;html=1;points=[];align=center;fontSize=12;image=img/lib/azure2/other/AVS_VM.svg;" vertex="1" parent="1">
          <mxGeometry x="590" y="180" width="68" height="62.8" as="geometry" />
        </mxCell>
        <mxCell id="D4wKrzark8rbHEG2IOxt-6" value="Server -Primary" style="text;html=1;strokeColor=none;fillColor=none;align=center;verticalAlign=middle;whiteSpace=wrap;rounded=0;" vertex="1" parent="1">
          <mxGeometry x="120" y="270" width="60" height="30" as="geometry" />
        </mxCell>
        <mxCell id="D4wKrzark8rbHEG2IOxt-7" value="VPN IP Sec" style="text;html=1;strokeColor=none;fillColor=none;align=center;verticalAlign=middle;whiteSpace=wrap;rounded=0;" vertex="1" parent="1">
          <mxGeometry x="390" y="222.8" width="60" height="30" as="geometry" />
        </mxCell>
        <mxCell id="D4wKrzark8rbHEG2IOxt-8" value="Server -DR" style="text;html=1;strokeColor=none;fillColor=none;align=center;verticalAlign=middle;whiteSpace=wrap;rounded=0;" vertex="1" parent="1">
          <mxGeometry x="720" y="252.8" width="60" height="30" as="geometry" />
        </mxCell>
        <mxCell id="D4wKrzark8rbHEG2IOxt-9" value="DR-Host" style="text;html=1;strokeColor=none;fillColor=none;align=center;verticalAlign=middle;whiteSpace=wrap;rounded=0;" vertex="1" parent="1">
          <mxGeometry x="590" y="252.8" width="60" height="30" as="geometry" />
        </mxCell>
        <mxCell id="D4wKrzark8rbHEG2IOxt-22" value="" style="edgeStyle=orthogonalEdgeStyle;rounded=0;orthogonalLoop=1;jettySize=auto;html=1;" edge="1" parent="1" source="D4wKrzark8rbHEG2IOxt-16" target="D4wKrzark8rbHEG2IOxt-1">
          <mxGeometry relative="1" as="geometry" />
        </mxCell>
        <mxCell id="D4wKrzark8rbHEG2IOxt-16" value="" style="rounded=1;whiteSpace=wrap;html=1;" vertex="1" parent="1">
          <mxGeometry x="110" y="465" width="120" height="60" as="geometry" />
        </mxCell>
        <mxCell id="D4wKrzark8rbHEG2IOxt-23" value="" style="edgeStyle=orthogonalEdgeStyle;rounded=0;orthogonalLoop=1;jettySize=auto;html=1;" edge="1" parent="1" source="D4wKrzark8rbHEG2IOxt-17" target="D4wKrzark8rbHEG2IOxt-2">
          <mxGeometry relative="1" as="geometry" />
        </mxCell>
        <mxCell id="D4wKrzark8rbHEG2IOxt-17" value="" style="rounded=1;whiteSpace=wrap;html=1;" vertex="1" parent="1">
          <mxGeometry x="620" y="460" width="120" height="60" as="geometry" />
        </mxCell>
        <mxCell id="D4wKrzark8rbHEG2IOxt-19" value="10 mbps link" style="text;html=1;strokeColor=none;fillColor=none;align=center;verticalAlign=middle;whiteSpace=wrap;rounded=0;" vertex="1" parent="1">
          <mxGeometry x="140" y="480" width="60" height="30" as="geometry" />
        </mxCell>
        <mxCell id="D4wKrzark8rbHEG2IOxt-20" value="10 mbps link" style="text;html=1;strokeColor=none;fillColor=none;align=center;verticalAlign=middle;whiteSpace=wrap;rounded=0;" vertex="1" parent="1">
          <mxGeometry x="650" y="475" width="60" height="30" as="geometry" />
        </mxCell>
        <mxCell id="D4wKrzark8rbHEG2IOxt-24" value="VPC" style="text;html=1;strokeColor=none;fillColor=none;align=center;verticalAlign=middle;whiteSpace=wrap;rounded=0;" vertex="1" parent="1">
          <mxGeometry y="80" width="60" height="30" as="geometry" />
        </mxCell>
        <mxCell id="D4wKrzark8rbHEG2IOxt-25" value="VPC" style="text;html=1;strokeColor=none;fillColor=none;align=center;verticalAlign=middle;whiteSpace=wrap;rounded=0;" vertex="1" parent="1">
          <mxGeometry y="80" width="60" height="30" as="geometry" />
        </mxCell>
        <mxCell id="D4wKrzark8rbHEG2IOxt-26" value="VPC" style="text;html=1;strokeColor=none;fillColor=none;align=center;verticalAlign=middle;whiteSpace=wrap;rounded=0;" vertex="1" parent="1">
          <mxGeometry x="510" y="80" width="60" height="30" as="geometry" />
        </mxCell>
        <mxCell id="D4wKrzark8rbHEG2IOxt-27" value="Cloud" style="text;html=1;strokeColor=none;fillColor=none;align=center;verticalAlign=middle;whiteSpace=wrap;rounded=0;" vertex="1" parent="1">
          <mxGeometry x="630" y="30" width="60" height="30" as="geometry" />
        </mxCell>
        <mxCell id="D4wKrzark8rbHEG2IOxt-28" value="Co-Locate" style="text;html=1;strokeColor=none;fillColor=none;align=center;verticalAlign=middle;whiteSpace=wrap;rounded=0;" vertex="1" parent="1">
          <mxGeometry x="100" y="30" width="60" height="30" as="geometry" />
        </mxCell>
      </root>
    </mxGraphModel>
  </diagram>
</mxfile>
